<svg xmlns="http://www.w3.org/2000/svg" width="53.316" height="53.591" viewBox="0 0 53.316 53.591">
  <g id="made-in-france" transform="translate(-167.261 -14.553)">
    <g id="Groupe_1" data-name="Groupe 1" transform="translate(167.761 15.053)">
      <path id="Tracé_3" data-name="Tracé 3" d="M193.918,14.553A26.508,26.508,0,0,1,212.77,22.4,26.849,26.849,0,0,1,204.3,66.038,26.547,26.547,0,0,1,175.068,60.3a26.849,26.849,0,0,1,8.473-43.636A26.373,26.373,0,0,1,193.918,14.553Zm0,52.591a25.508,25.508,0,0,0,18.143-7.554A25.849,25.849,0,0,0,203.9,17.58a25.546,25.546,0,0,0-28.128,5.528,25.849,25.849,0,0,0,8.156,42.01A25.379,25.379,0,0,0,193.918,67.144Z" transform="translate(-167.761 -15.053)" fill="#268436"/>
      <path id="Tracé_4" data-name="Tracé 4" d="M207.763,73.156a17.964,17.964,0,1,1,17.825-17.963A17.915,17.915,0,0,1,207.763,73.156Zm0-34.927a16.964,16.964,0,1,0,16.825,16.963A16.914,16.914,0,0,0,207.763,38.229Z" transform="translate(-181.605 -28.897)" fill="#268436"/>
    </g>
    <g id="Groupe_4" data-name="Groupe 4" transform="translate(178.33 17.543)">
      <g id="Groupe_3" data-name="Groupe 3" transform="translate(0)">
        <g id="Groupe_2" data-name="Groupe 2">
          <path id="Tracé_5" data-name="Tracé 5" d="M194.895,28.851l.889-.464,3.137,2.6.025-.013-.352-4.055.888-.464,2.3,4.4-.6.311-1.888-3.617-.012.006.4,4.393-.4.208-3.373-2.843-.012.006,1.887,3.618-.6.311Z" transform="translate(-194.895 -24.505)" fill="#268436"/>
          <path id="Tracé_6" data-name="Tracé 6" d="M214.3,23.5l.591-.15,3.279,4.289-.761.193-.784-1.067-2.29.581-.174,1.31-.762.192Zm1.942,2.755-1.457-1.981-.013,0-.351,2.439Z" transform="translate(-206.192 -22.612)" fill="#268436"/>
          <path id="Tracé_7" data-name="Tracé 7" d="M225.96,21.516l1.73-.066a3.187,3.187,0,0,1,.926.083,2.483,2.483,0,0,1,.7.292,2.026,2.026,0,0,1,.5.441,2.448,2.448,0,0,1,.325.52,2.656,2.656,0,0,1,.182.54,2.863,2.863,0,0,1,.069.5,2.5,2.5,0,0,1-.139.928,2.345,2.345,0,0,1-.488.811,2.565,2.565,0,0,1-.83.59,3.057,3.057,0,0,1-1.165.255l-1.619.062Zm.839,4.3.847-.033a2.767,2.767,0,0,0,.805-.147,1.971,1.971,0,0,0,.656-.372,1.655,1.655,0,0,0,.433-.6,1.827,1.827,0,0,0,.137-.816,2.443,2.443,0,0,0-.1-.554,1.664,1.664,0,0,0-.314-.595,1.722,1.722,0,0,0-.611-.465,2.1,2.1,0,0,0-.988-.162l-1.009.039Z" transform="translate(-213.86 -21.446)" fill="#268436"/>
          <path id="Tracé_8" data-name="Tracé 8" d="M240.25,21.647l3.165.5-.1.623-2.5-.391-.229,1.461,2.327.365-.1.624-2.327-.365-.247,1.572,2.625.412-.1.624-3.29-.516Z" transform="translate(-222.115 -21.569)" fill="#268436"/>
          <path id="Tracé_9" data-name="Tracé 9" d="M256.2,25.773l.63.238-1.757,4.643-.63-.238Z" transform="translate(-231.25 -24.088)" fill="#268436"/>
          <path id="Tracé_10" data-name="Tracé 10" d="M261.23,28.1l.769.435.368,4.9.013.007,2.011-3.551.585.332-2.446,4.319-.744-.421-.393-4.912-.012-.007-2.011,3.551-.586-.332Z" transform="translate(-233.9 -25.507)" fill="#268436"/>
        </g>
      </g>
    </g>
    <g id="Groupe_7" data-name="Groupe 7" transform="translate(180.369 56.203)">
      <g id="Groupe_6" data-name="Groupe 6" transform="translate(0 0)">
        <g id="Groupe_5" data-name="Groupe 5">
          <path id="Tracé_11" data-name="Tracé 11" d="M202.667,124.581l2.682,1.593-.322.542-2.1-1.249-.795,1.338,1.959,1.164-.322.543-1.959-1.164-1.1,1.845-.578-.344Z" transform="translate(-200.132 -123.071)" fill="#268436"/>
          <path id="Tracé_12" data-name="Tracé 12" d="M212.22,129.158l1.652.564a2.036,2.036,0,0,1,.7.376,1.348,1.348,0,0,1,.355.469,1.136,1.136,0,0,1,.09.505,1.753,1.753,0,0,1-.089.478,1.279,1.279,0,0,1-.228.407,1.3,1.3,0,0,1-.358.3,1.389,1.389,0,0,1-.462.161,1.344,1.344,0,0,1-.53-.021l.6,2.6-.8-.272-.488-2.478-.71-.242-.706,2.07-.637-.217Zm-.069,2.287.835.286a2.471,2.471,0,0,0,.379.1,1.06,1.06,0,0,0,.363,0,.635.635,0,0,0,.307-.151.969.969,0,0,0,.264-.777.629.629,0,0,0-.151-.307,1.047,1.047,0,0,0-.288-.22,2.414,2.414,0,0,0-.358-.155l-.836-.286Z" transform="translate(-206.533 -125.865)" fill="#268436"/>
          <path id="Tracé_13" data-name="Tracé 13" d="M223.919,132.591l.607.06,1.627,5.148-.782-.077-.375-1.27-2.351-.232-.609,1.173-.782-.077Zm.891,3.251-.7-2.358H224.1l-1.159,2.175Z" transform="translate(-213.027 -127.961)" fill="#268436"/>
          <path id="Tracé_14" data-name="Tracé 14" d="M235.473,132.1l.872-.141,3.35,3.592.014,0-.65-4.028.664-.107.791,4.9-.844.137-3.377-3.588-.014,0,.65,4.028-.664.107Z" transform="translate(-221.708 -127.24)" fill="#268436"/>
          <path id="Tracé_15" data-name="Tracé 15" d="M252.617,128.29a1.39,1.39,0,0,0-.658-.164,1.591,1.591,0,0,0-.668.139,1.791,1.791,0,0,0-.629.456,1.74,1.74,0,0,0-.353.632,1.962,1.962,0,0,0-.079.739,2.3,2.3,0,0,0,.2.774,2.184,2.184,0,0,0,.42.625,1.856,1.856,0,0,0,.586.413,1.7,1.7,0,0,0,.7.144,1.874,1.874,0,0,0,.773-.179,1.549,1.549,0,0,0,.612-.468,1.612,1.612,0,0,0,.3-.672l.693.157a2.22,2.22,0,0,1-.088.282,1.978,1.978,0,0,1-.221.415,2.643,2.643,0,0,1-.4.459,2.379,2.379,0,0,1-.642.409,2.454,2.454,0,0,1-1.061.232,2.6,2.6,0,0,1-2.32-1.523,2.92,2.92,0,0,1-.264-1.047,2.519,2.519,0,0,1,.137-.984,2.366,2.366,0,0,1,.518-.837,2.733,2.733,0,0,1,.878-.612,2.574,2.574,0,0,1,.957-.223,1.8,1.8,0,0,1,.945.212Z" transform="translate(-230.28 -124.826)" fill="#268436"/>
          <path id="Tracé_16" data-name="Tracé 16" d="M258.617,122.646l2.547-1.943.383.5-2.012,1.535.9,1.175,1.873-1.428.382.5-1.873,1.429.965,1.265,2.113-1.611.382.5-2.648,2.019Z" transform="translate(-235.837 -120.703)" fill="#268436"/>
        </g>
      </g>
    </g>
    <g id="Groupe_8" data-name="Groupe 8" transform="translate(183.402 33.47)" opacity="0.9">
      <path id="Tracé_17" data-name="Tracé 17" d="M215.054,79.736H210.6a2.686,2.686,0,0,1-2.686-2.686V64.742a2.365,2.365,0,0,1,2.365-2.365h4.77Z" transform="translate(-207.919 -62.361)" fill="#002e7f"/>
      <path id="Tracé_18" data-name="Tracé 18" d="M248.743,79.7h-4.184V62.337h4.431a2.7,2.7,0,0,1,2.7,2.7v11.7A2.952,2.952,0,0,1,248.743,79.7Z" transform="translate(-230.288 -62.337)" fill="#d6000f"/>
    </g>
    <rect id="Rectangle_5" data-name="Rectangle 5" width="7.353" height="17.358" transform="translate(190.538 33.47)" fill="#fff"/>
  </g>
</svg>
